<svg width="446" height="361" viewBox="0 0 446 361" fill="none" xmlns="http://www.w3.org/2000/svg">
<g clip-path="url(#clip0)">
<path opacity="0.42" d="M100.294 23.6669C115.215 13.8077 131.377 5.38211 148.858 1.85681C174.451 -3.26293 201.494 2.5882 224.481 15.1242C252.122 30.1616 273.953 53.888 298.81 73.3064C327.699 95.8479 360.993 112.67 387.105 138.459C413.218 164.248 431.529 203.121 419.601 237.994C409.053 268.858 378.458 287.633 348.731 300.345C281.58 329.081 207.384 339.983 134.146 331.875C70.0318 324.649 1.52799 282.382 2.24149 209.001C2.96274 135.094 39.4754 63.8349 100.294 23.6669Z" fill="#00BFBF"/>
<path d="M46.6872 151.851C58.5587 158.112 69.7673 165.43 80.1597 173.705C88.427 180.288 96.2444 187.507 105.613 192.612C114.982 197.717 126.413 200.511 136.712 197.38C154.209 192.056 164.81 171.153 183.198 171.233C188.216 171.233 193.598 172.901 198.042 170.699C200.765 169.346 202.533 166.801 204.185 164.358L222.798 136.858L239.914 165.894C240.69 167.196 241.527 168.564 242.931 169.244C244.877 170.187 247.22 169.492 249.414 169.419C259.458 169.09 265.988 181.721 276.031 181.326C278.699 181.224 281.344 180.163 283.965 180.646C287.99 181.378 290.309 185.378 293.838 187.338C299.266 190.374 306.378 187.989 311.528 184.515C316.677 181.041 321.214 176.47 327.24 174.605C333.266 172.74 341.502 175.292 342.301 181.187C349.281 180.354 350.359 169.346 357.277 168.139C362.241 167.284 365.994 172.06 368.74 176.046C379.912 192.211 395.69 205.078 414.264 213.171C419.096 215.27 424.873 217.984 425.277 222.986C425.68 227.989 420.29 231.573 415.582 233.994C343.309 271.17 267.973 309.203 185.789 313.664C144.685 315.858 102.232 309.707 63.1985 321.966C45.2912 327.59 27.601 337.12 8.91043 334.882C8.05253 334.829 7.22164 334.578 6.49073 334.151C5.14904 333.236 4.93965 331.452 4.93965 329.894C3.5023 293.573 2.07013 257.247 0.643133 220.917C0.030453 207.752 -0.574472 199.977 8.5149 189.708C20.3187 176.368 33.3788 163.868 46.6872 151.851Z" fill="#00BFBF"/>
<path opacity="0.58" d="M415.567 234.023C343.302 271.2 267.965 309.232 185.781 313.693C144.677 315.888 102.224 309.737 63.1906 322.002C45.2911 327.626 27.5932 337.142 8.90254 334.911C8.047 334.858 7.21854 334.607 6.49059 334.18C5.14115 333.265 4.93951 331.481 4.90073 329.923C3.47373 293.588 2.04414 257.262 0.611968 220.946C0.518903 218.752 0.433592 216.704 0.387059 214.773C0.146641 205.082 0.960962 198.236 8.53803 189.679C20.3185 176.368 33.3787 163.868 46.6871 151.851C58.5597 158.11 69.7686 165.428 80.1595 173.705C88.4191 180.288 96.2443 187.507 105.613 192.612C114.981 197.717 126.413 200.518 136.712 197.38C154.209 192.056 164.81 171.153 183.198 171.233C188.216 171.233 193.598 172.901 198.042 170.699C200.764 169.346 202.533 166.794 204.185 164.358C210.389 155.186 216.593 146.02 222.798 136.858L227.738 145.24L239.906 165.894C240.682 167.196 241.519 168.564 242.923 169.244C244.877 170.187 247.22 169.492 249.399 169.419C259.442 169.09 265.98 181.721 276.023 181.326C278.683 181.224 281.328 180.156 283.949 180.639C285.534 180.995 286.993 181.734 288.184 182.782C290.053 184.245 291.72 186.168 293.83 187.346C299.259 190.374 306.37 187.982 311.52 184.515C316.67 181.048 321.206 176.47 327.232 174.605C333.258 172.74 341.487 175.292 342.293 181.187C349.273 180.346 350.344 169.346 357.269 168.139C362.225 167.284 365.986 172.06 368.732 176.046L369.065 176.514C380.212 192.468 395.864 205.167 414.256 213.178C419.088 215.263 424.873 217.984 425.269 222.986C425.665 227.989 420.274 231.595 415.567 234.023Z" fill="url(#paint0_linear)"/>
<path opacity="0.58" d="M322.06 205.813C303.913 206.508 287.665 217.179 269.61 219.059C254.48 220.631 238.883 215.929 224.101 219.351C212.127 222.131 202.037 229.964 190.109 232.926C182.354 234.842 174.226 234.616 166.223 234.286C152.666 233.731 139.125 232.929 125.599 231.88C138.722 241.527 155.644 245.243 172.132 247.181C188.62 249.119 205.481 249.573 221.496 253.829C234.68 257.333 247.089 263.337 260.412 266.263C273.891 269.232 287.921 268.962 301.749 268.282C326.83 267.045 351.841 264.522 376.674 260.968C390.634 258.949 408.099 255.68 415.979 243.209C422.377 233.08 418.306 218.269 407.076 212.762C397.343 207.978 384.205 208.863 373.727 205.996C364.63 203.502 357.27 199.509 347.7 201.952C339.357 204.238 330.744 205.535 322.06 205.813Z" fill="url(#paint1_linear)"/>
<path d="M227.738 145.24C227.689 145.704 227.588 146.163 227.436 146.607C226.404 149.423 224.403 149.189 223.031 151.471C218.656 158.785 221.123 163.568 218.757 171.372C216.95 177.333 210.265 180.697 203.937 182.343C197.608 183.989 190.752 184.808 185.44 188.45C180.127 192.092 177.351 200.094 181.989 204.49C174.807 205.221 170.317 212.601 163.376 214.546C160.957 215.107 158.463 215.32 155.977 215.175L110.763 214.736C108.622 214.736 106.389 214.671 104.442 213.793C102.271 212.784 100.766 210.867 99.2847 209.046C93.0081 201.431 85.3835 194.896 76.7474 189.73C75.111 188.757 73.3737 187.807 71.4504 187.682C69.527 187.558 67.7821 188.187 66.0216 188.816L42.0262 197.519C37.5436 199.136 33.0299 200.781 29.0126 203.253C25.3986 205.448 22.2576 208.307 18.6048 210.465C13.1298 213.641 6.74863 215.145 0.332982 214.773C0.0925635 205.082 0.906885 198.236 8.48395 189.679C20.3188 176.368 33.3789 163.868 46.6873 151.851C58.56 158.11 69.7688 165.428 80.1597 173.705C88.4193 180.288 96.2445 187.507 105.613 192.612C114.982 197.717 126.413 200.518 136.712 197.38C154.209 192.056 164.81 171.153 183.199 171.233C188.216 171.233 193.599 172.901 198.042 170.699C200.765 169.346 202.533 166.794 204.185 164.358C210.389 155.186 216.593 146.02 222.798 136.858L227.738 145.24Z" fill="url(#paint2_linear)"/>
<path d="M276.125 227.777C267.927 225.378 259.419 223.169 250.881 223.967C239.286 225.049 229.127 231.507 218.114 235.091C188.287 244.797 155.784 232.853 124.273 233.219C111.415 233.365 98.6802 235.581 85.9225 236.956C60.981 239.633 35.7913 239.099 10.6947 239.838C8.67832 239.896 6.5223 240.006 4.92468 241.162C2.59805 242.837 2.32661 245.996 2.25681 248.761C1.62862 275.376 1.18656 302.979 12.494 327.378C14.1226 330.889 16.1856 334.509 19.7453 336.367C22.8475 337.983 26.5779 337.991 30.1221 337.954L207.559 336.169C223.845 336.001 240.186 335.826 256.131 332.827C268.54 330.486 280.483 326.471 292.256 322.156C307.968 316.4 323.844 309.847 335.904 298.751C352.88 283.122 348.855 265.897 333.306 251.087C319.478 237.914 294.334 233.08 276.125 227.777Z" fill="#00BFBF"/>
<path opacity="0.58" d="M276.125 227.777C267.927 225.378 259.419 223.169 250.881 223.967C239.286 225.049 229.127 231.507 218.114 235.091C188.287 244.797 155.784 232.853 124.273 233.219C111.415 233.365 98.6802 235.581 85.9225 236.956C60.981 239.633 35.7913 239.099 10.6947 239.838C8.67832 239.896 6.5223 240.006 4.92468 241.162C2.59805 242.837 2.32661 245.996 2.25681 248.761C1.62862 275.376 1.18656 302.979 12.494 327.378C14.1226 330.889 16.1856 334.509 19.7453 336.367C22.8475 337.983 26.5779 337.991 30.1221 337.954L207.559 336.169C223.845 336.001 240.186 335.826 256.131 332.827C268.54 330.486 280.483 326.471 292.256 322.156C307.968 316.4 323.844 309.847 335.904 298.751C352.88 283.122 348.855 265.897 333.306 251.087C319.478 237.914 294.334 233.08 276.125 227.777Z" fill="url(#paint3_linear)"/>
<path opacity="0.58" d="M60.525 284.826C68.5829 278.631 76.8114 272.333 86.5677 268.867C97.5572 264.946 109.617 264.917 121.366 264.946L191.065 265.085C201.03 265.085 211.485 265.012 220.248 260.529C147.389 254.974 74.2692 253.065 1.19581 254.809C0.497817 267.718 -4.233 306.285 11.5571 312.297C27.2308 318.258 50.3343 292.652 60.525 284.826Z" fill="url(#paint4_linear)"/>
<path d="M308.907 220.661C295.808 227.243 284.516 237.373 272.557 245.36C266.275 249.543 201.983 289.243 203.441 293.017L204.573 295.943C201.994 302.646 201.086 309.819 201.919 316.906C202.751 323.993 205.302 330.804 209.374 336.813L404.811 340.47C415.382 340.667 426.371 340.792 435.98 336.623C440.036 334.853 443.953 332.088 445.356 328.087C446.194 325.703 446.062 323.128 445.923 320.627C444.496 295.76 448.466 263.579 441.269 239.699C437.71 227.865 432.281 230.98 420.074 230.242C407.867 229.503 396.559 227.075 386.237 221.955C385.213 221.45 384.205 220.924 383.204 220.361C362.714 208.922 338.068 209.463 316.104 217.559C313.648 218.471 311.25 219.516 308.923 220.69" fill="#00BFBF"/>
<path opacity="0.58" d="M445.326 328.051C443.93 332.051 440.013 334.823 435.949 336.586C426.34 340.762 415.351 340.645 404.78 340.441L209.382 336.784C202.942 327.287 200.376 315.909 202.161 304.763C202.639 301.745 203.447 298.782 204.573 295.921C204.201 294.941 203.798 293.975 203.441 292.995C201.983 289.229 266.26 249.529 272.558 245.33C284.516 237.351 295.824 227.199 308.915 220.631C311.243 219.465 313.638 218.422 316.089 217.508C320.717 215.795 325.48 214.428 330.336 213.42C348.297 209.719 367.042 211.292 383.189 220.31C384.189 220.873 385.198 221.399 386.221 221.911C396.544 227.031 407.828 229.452 420.058 230.191C432.289 230.929 437.686 227.806 441.254 239.655C448.428 263.498 444.465 295.723 445.907 320.576C446.031 323.099 446.171 325.674 445.326 328.051Z" fill="url(#paint5_linear)"/>
<path opacity="0.58" d="M330.336 213.442C330.312 213.961 330.255 214.479 330.165 214.992C329.203 220.96 328.063 227.272 323.798 231.763C320.339 235.42 315.267 237.307 311.249 240.35C301.338 247.832 298.577 261.055 290.155 270.015C284.423 276.122 276.055 280.298 272.557 287.758C265.709 302.35 278.397 331.678 252.448 335.891C234.85 338.744 213.74 316.787 202.161 304.778C202.639 301.76 203.447 298.796 204.573 295.935C204.201 294.955 203.798 293.99 203.441 293.01C201.983 289.243 266.26 249.543 272.557 245.345C284.516 237.366 295.824 227.214 308.915 220.646C311.243 219.48 313.638 218.437 316.089 217.523C320.717 215.812 325.48 214.448 330.336 213.442V213.442Z" fill="url(#paint6_linear)"/>
<path d="M123.963 243.846C125.429 250.874 127.577 257.83 127.895 264.99C127.86 265.319 127.903 265.65 128.023 265.961C128.143 266.271 128.335 266.552 128.585 266.782C128.95 266.963 129.361 267.044 129.772 267.016C130.695 267.016 131.61 267.016 132.525 267.016C133.381 267.111 134.245 266.928 134.976 266.497C135.844 265.853 135.961 264.668 135.976 263.623C136.217 249.726 132.447 235.625 135.565 222.028C135.619 221.787 127.468 222.262 126.739 222.394C123.808 222.906 123.583 223.996 123.087 226.709C122.063 232.414 122.8 238.243 123.963 243.846Z" fill="url(#paint7_linear)"/>
<path d="M161.065 218.576C161.195 219.417 161.135 220.275 160.887 221.092C159.933 225.788 160.67 230.6 161.414 235.362L164.245 253.339C165.796 254.385 168.123 253.507 169.162 251.993C170.201 250.479 170.31 248.592 170.387 246.793L171.427 221.348C171.608 219.337 171.495 217.311 171.093 215.329C170.434 212.762 168.821 210.509 167.068 208.446C166.853 208.129 166.534 207.885 166.161 207.752C165.799 207.691 165.426 207.735 165.09 207.876C162.857 208.607 157.521 210.692 156.606 212.996C155.598 215.636 160.391 215.943 161.065 218.576Z" fill="url(#paint8_linear)"/>
<path d="M119.023 220.829C119.039 221.43 119.305 222 119.764 222.418C120.222 222.835 120.836 223.066 121.474 223.06C126.892 224.061 132.465 224.061 137.884 223.06C138.132 223.06 138.377 223.011 138.604 222.916C138.83 222.82 139.032 222.68 139.196 222.505C139.361 222.33 139.484 222.124 139.557 221.9C139.63 221.677 139.652 221.441 139.621 221.209L140.754 210.721C142.601 214.509 144.745 218.161 147.167 221.648L165.005 209.865C165.719 209.486 166.293 208.909 166.649 208.212C167.021 207.181 166.393 206.091 165.78 205.17C161.256 198.344 156.603 191.59 151.821 184.91C151.045 183.864 150.27 182.76 148.99 182.321C147.578 181.824 146.012 182.321 144.593 182.76L128.004 188.245C121.194 190.491 119.387 193.643 118.441 200.167C117.455 207.039 117.651 214.016 119.023 220.829V220.829Z" fill="#00BFBF"/>
<path opacity="0.58" d="M119.023 220.829C119.039 221.43 119.305 222 119.764 222.418C120.222 222.835 120.836 223.066 121.474 223.06C126.892 224.061 132.465 224.061 137.884 223.06C138.132 223.06 138.377 223.011 138.604 222.916C138.83 222.82 139.032 222.68 139.196 222.505C139.361 222.33 139.484 222.124 139.557 221.9C139.63 221.677 139.652 221.441 139.621 221.209L140.754 210.721C142.601 214.509 144.745 218.161 147.167 221.648L165.005 209.865C165.719 209.486 166.293 208.909 166.649 208.212C167.021 207.181 166.393 206.091 165.78 205.17C161.256 198.344 156.603 191.59 151.821 184.91C151.045 183.864 150.27 182.76 148.99 182.321C147.578 181.824 146.012 182.321 144.593 182.76L128.004 188.245C121.194 190.491 119.387 193.643 118.441 200.167C117.455 207.039 117.651 214.016 119.023 220.829V220.829Z" fill="url(#paint9_linear)"/>
<path d="M148.494 127.511C148.8 127.861 148.958 128.307 148.936 128.761C148.826 129.048 148.669 129.317 148.47 129.558C147.935 130.451 148.292 131.614 147.904 132.572C147.517 133.53 146.353 134.152 145.446 134.766C144.767 135.324 144.029 135.814 143.243 136.229C142.847 136.428 142.398 136.514 141.951 136.478C141.504 136.441 141.077 136.284 140.723 136.024C140.28 135.525 140.024 134.903 139.994 134.254C139.564 131.525 139.338 128.77 139.319 126.011C139.282 125.561 139.362 125.109 139.552 124.695C139.774 124.362 140.081 124.085 140.444 123.89C141.995 122.969 144.546 122.384 146.307 123.159C147.881 123.854 147.726 126.187 148.494 127.511Z" fill="url(#paint10_linear)"/>
<path d="M139.699 116.576C141.327 116.042 143.328 116.189 144.523 117.359C145.166 117.988 145.539 118.873 146.322 119.334C147.091 119.699 147.967 119.812 148.811 119.656C149.648 119.491 150.511 119.491 151.347 119.656C151.762 119.754 152.124 119.992 152.365 120.325C152.607 120.658 152.711 121.062 152.658 121.462C152.487 122.106 151.805 122.479 151.177 122.786C148.271 124.215 145.321 125.57 142.328 126.852C141.416 127.284 140.456 127.62 139.466 127.854C139.027 127.986 138.556 127.986 138.117 127.854C137.812 127.714 137.547 127.509 137.341 127.255C136.516 126.379 135.885 125.357 135.485 124.247C135.086 123.138 134.926 121.965 135.014 120.797C135.185 118.69 137.721 117.227 139.699 116.576Z" fill="#00BFBF"/>
<path opacity="0.58" d="M139.699 116.576C141.327 116.042 143.328 116.189 144.523 117.359C145.166 117.988 145.539 118.873 146.322 119.334C147.091 119.699 147.967 119.812 148.811 119.656C149.648 119.491 150.511 119.491 151.347 119.656C151.762 119.754 152.124 119.992 152.365 120.325C152.607 120.658 152.711 121.062 152.658 121.462C152.487 122.106 151.805 122.479 151.177 122.786C148.271 124.215 145.321 125.57 142.328 126.852C141.416 127.284 140.456 127.62 139.466 127.854C139.027 127.986 138.556 127.986 138.117 127.854C137.812 127.714 137.547 127.509 137.341 127.255C136.516 126.379 135.885 125.357 135.485 124.247C135.086 123.138 134.926 121.965 135.014 120.797C135.185 118.69 137.721 117.227 139.699 116.576Z" fill="url(#paint11_linear)"/>
<path d="M102.287 295.701C112.772 289.353 120.535 279.721 130.385 272.524C140.841 264.912 153.357 260.229 166.502 259.008C168.828 258.795 171.271 258.708 173.482 259.49C176.041 260.397 177.98 262.379 179.818 264.295L210.01 295.694C212.225 298.18 214.73 300.423 217.478 302.379C220.805 304.573 224.668 305.882 228.258 307.667C240.52 313.745 248.903 324.862 256.814 335.577C234.854 337.209 213.224 341.602 192.498 348.64C183.633 351.653 174.924 355.149 165.796 357.365C151.96 360.715 137.52 361.022 123.234 361.022C106.831 360.978 90.4053 360.495 74.0801 358.981C65.0838 358.14 55.9634 356.868 47.4867 353.81C41.8175 351.763 26.7797 345.414 28.8736 338.254C30.1455 333.865 40.5844 325.769 44.307 321.995C50.7285 315.486 59.5309 311.602 68.248 308.559C79.6795 304.529 91.8711 302.006 102.287 295.701Z" fill="#00BFBF"/>
<path opacity="0.58" d="M256.806 335.577C234.846 337.206 213.215 341.599 192.49 348.639C183.626 351.645 174.916 355.149 165.788 357.365C151.953 360.715 137.512 361.022 123.226 361.022C106.824 361.022 90.3976 360.495 74.0647 358.981L72.5136 358.82C64.0291 357.987 55.4516 356.692 47.4868 353.81C41.8253 351.755 26.7875 345.414 28.8737 338.246C30.1456 333.858 40.5922 325.769 44.3148 321.995C50.7286 315.485 59.531 311.602 68.2481 308.559C79.7106 304.558 91.9099 302.035 102.325 295.738C112.741 289.441 120.574 279.742 130.431 272.553C140.885 264.942 153.398 260.258 166.541 259.037C168.867 258.832 171.31 258.737 173.52 259.512C174.582 259.906 175.571 260.453 176.452 261.136C177.672 262.112 178.81 263.176 179.857 264.317L210.041 295.723C212.261 298.208 214.768 300.45 217.517 302.408C220.844 304.602 224.706 305.912 228.297 307.696C240.504 313.737 248.888 324.862 256.806 335.577Z" fill="url(#paint12_linear)"/>
<path opacity="0.58" d="M176.405 261.143C172.587 265.563 168.294 269.597 163.593 273.182C155.636 279.23 145.989 284.701 142.956 293.909C140.839 300.331 142.181 308.084 137.396 313.086C131.967 318.755 120.892 318.206 117.231 325.015C116.363 326.646 116.076 328.49 115.486 330.223C112.229 339.775 100.945 344.178 91.3592 348.508C84.789 351.474 78.4771 354.925 72.4825 358.828C63.998 357.994 55.4205 356.699 47.4557 353.818C41.7942 351.762 26.7564 345.421 28.8426 338.254C30.1145 333.865 40.5611 325.776 44.2837 322.002C50.6974 315.493 59.4999 311.609 68.217 308.566C79.6795 304.566 91.8788 302.042 102.294 295.745C112.71 289.448 120.543 279.75 130.4 272.56C140.854 264.949 153.367 260.266 166.509 259.044C168.836 258.839 171.279 258.744 173.489 259.519C174.545 259.914 175.529 260.462 176.405 261.143V261.143Z" fill="url(#paint13_linear)"/>
<path d="M156.536 141.985C158.304 145.174 158.762 149.204 156.885 152.334C156.231 153.523 155.143 154.448 153.822 154.938C153.158 155.164 152.438 155.194 151.756 155.024C151.074 154.854 150.464 154.493 150.006 153.987C148.451 160.604 147.97 167.405 148.579 174.159C148.796 176.565 149.122 179.132 147.92 181.261C146.964 182.742 145.581 183.936 143.933 184.705C135.914 188.947 125.964 188.165 117.092 185.905C116.759 185.882 116.435 185.793 116.14 185.645C115.845 185.497 115.587 185.292 115.381 185.045C115.175 184.797 115.026 184.511 114.944 184.206C114.862 183.9 114.849 183.582 114.905 183.272C114.726 179.395 114.726 175.512 114.719 171.628V156.152C114.719 151.303 114.796 146.168 117.487 142.043C118.556 140.345 120.105 138.962 121.962 138.05C123.709 137.336 125.56 136.878 127.453 136.69C136.829 135.344 151.534 130.224 156.536 141.985Z" fill="#00BFBF"/>
<path opacity="0.58" d="M156.536 141.985C158.304 145.174 158.762 149.204 156.885 152.334C156.231 153.523 155.143 154.448 153.822 154.938C153.158 155.164 152.438 155.194 151.756 155.024C151.074 154.854 150.464 154.493 150.006 153.987C148.451 160.604 147.97 167.405 148.579 174.159C148.796 176.565 149.122 179.132 147.92 181.261C146.964 182.742 145.581 183.936 143.933 184.705C135.914 188.947 125.964 188.165 117.092 185.905C116.759 185.882 116.435 185.793 116.14 185.645C115.845 185.497 115.587 185.292 115.381 185.045C115.175 184.797 115.026 184.511 114.944 184.206C114.862 183.9 114.849 183.582 114.905 183.272C114.726 179.395 114.726 175.512 114.719 171.628V156.152C114.719 151.303 114.796 146.168 117.487 142.043C118.556 140.345 120.105 138.962 121.962 138.05C123.709 137.336 125.56 136.878 127.453 136.69C136.829 135.344 151.534 130.224 156.536 141.985Z" fill="url(#paint14_linear)"/>
<path opacity="0.58" d="M142.731 141.436C142.619 142.87 142.619 144.31 142.731 145.744C142.731 149.665 141.18 153.409 139.916 157.161C138.652 160.913 137.876 165.053 139.451 168.688C139.694 169.149 139.862 169.642 139.947 170.151C139.944 170.568 139.903 170.984 139.823 171.394C139.772 172.563 139.9 173.734 140.203 174.868C140.924 178.679 140.761 182.577 140.606 186.439C140.102 186.497 139.885 185.861 139.831 185.386L139.249 176.989C137.124 178.84 137.985 182.109 137.395 184.771C137.361 185.093 137.25 185.403 137.07 185.678C136.89 185.953 136.646 186.186 136.356 186.358C135.945 186.489 135.498 186.476 135.097 186.321C134.695 186.167 134.366 185.882 134.169 185.517C133.801 184.775 133.633 183.959 133.681 183.14L133.301 168.732C133.04 163.854 133.17 158.964 133.688 154.104C134.068 151.244 134.712 148.428 135.239 145.583C135.465 143.62 135.968 141.694 136.736 139.857C137.514 138.305 138.703 136.969 140.188 135.976C141.672 134.983 143.403 134.367 145.213 134.188C145.888 134.13 147.989 134.064 148.121 134.971C148.207 135.563 146.213 136.236 145.756 136.573C144.119 137.765 143.035 139.508 142.731 141.436V141.436Z" fill="url(#paint15_linear)"/>
<path d="M142.731 167.525C140.831 168.82 138.466 169.814 136.193 169.273C135.945 169.697 136.325 170.246 136.791 170.451C137.256 170.655 137.807 170.677 138.287 170.846C138.794 171.066 139.232 171.406 139.558 171.832C139.884 172.259 140.088 172.758 140.149 173.281C140.259 174.328 140.24 175.383 140.094 176.426C139.854 180.083 140.823 183.689 141.785 187.229C142.126 188.472 143.011 190.045 144.329 189.701C145.438 189.408 145.609 188.011 145.539 186.929C145.298 183.429 144.818 179.948 144.104 176.506C143.716 174.663 143.282 172.667 144.143 170.977C144.562 170.263 145.061 169.594 145.632 168.98C147.602 166.581 149.51 162.764 148.998 159.692C147.827 160.54 147.516 162.434 146.71 163.612C145.653 165.138 144.303 166.465 142.731 167.525V167.525Z" fill="#00BFBF"/>
<path opacity="0.58" d="M142.731 167.525C140.831 168.82 138.466 169.814 136.193 169.273C135.945 169.697 136.325 170.246 136.791 170.451C137.256 170.655 137.807 170.677 138.287 170.846C138.794 171.066 139.232 171.406 139.558 171.832C139.884 172.259 140.088 172.758 140.149 173.281C140.259 174.328 140.24 175.383 140.094 176.426C139.854 180.083 140.823 183.689 141.785 187.229C142.126 188.472 143.011 190.045 144.329 189.701C145.438 189.408 145.609 188.011 145.539 186.929C145.298 183.429 144.818 179.948 144.104 176.506C143.716 174.663 143.282 172.667 144.143 170.977C144.562 170.263 145.061 169.594 145.632 168.98C147.602 166.581 149.51 162.764 148.998 159.692C147.827 160.54 147.516 162.434 146.71 163.612C145.653 165.138 144.303 166.465 142.731 167.525V167.525Z" fill="url(#paint16_linear)"/>
<path d="M146.206 135.292C147.098 135.241 147.982 135.417 148.874 135.402C149.153 135.402 149.509 135.322 149.548 135.058C149.548 134.973 149.527 134.889 149.487 134.813C149.446 134.737 149.388 134.671 149.316 134.62C148.282 133.708 146.962 133.138 145.554 132.996C144.155 132.853 142.743 132.853 141.343 132.996C140.853 132.98 140.369 133.11 139.963 133.369C138.745 134.312 139.412 137.026 141.017 137.275C141.948 137.414 142.568 136.719 143.282 136.28C144.148 135.716 145.156 135.375 146.206 135.292V135.292Z" fill="#00BFBF"/>
<path opacity="0.58" d="M146.206 135.292C147.098 135.241 147.982 135.417 148.874 135.402C149.153 135.402 149.509 135.322 149.548 135.058C149.548 134.973 149.527 134.889 149.487 134.813C149.446 134.737 149.388 134.671 149.316 134.62C148.282 133.708 146.962 133.138 145.554 132.996C144.155 132.853 142.743 132.853 141.343 132.996C140.853 132.98 140.369 133.11 139.963 133.369C138.745 134.312 139.412 137.026 141.017 137.275C141.948 137.414 142.568 136.719 143.282 136.28C144.148 135.716 145.156 135.375 146.206 135.292V135.292Z" fill="url(#paint17_linear)"/>
<path d="M158.296 182.021C159.747 178.577 161.45 175.231 163.392 172.009C163.995 171.116 164.465 170.149 164.788 169.134C165.253 167.32 164.664 165.419 164.012 163.649C162.723 160.076 161.197 156.583 159.444 153.19C158.994 152.327 158.165 149.665 157.071 149.599C155.76 149.518 153.558 151.208 152.596 151.932C152.402 152.019 152.231 152.144 152.094 152.3C151.957 152.456 151.857 152.637 151.802 152.833C151.747 153.028 151.737 153.233 151.774 153.432C151.81 153.631 151.893 153.821 152.014 153.987C153.473 156.964 155.28 159.794 156.427 162.881C156.796 163.865 157.056 164.882 157.203 165.916C157.978 171.087 155.946 176.302 153.55 181.027C152.471 182.875 151.59 184.82 150.921 186.834C150.386 188.882 150.518 191.222 151.89 192.883L154.395 190.637L157.459 193.065C158.149 192.334 158.087 191.222 158.048 190.242C157.839 184.442 159.995 178.832 161.53 173.215C162.57 169.427 163.322 165.463 162.888 161.513C162.422 157.308 160.088 153.687 158.141 149.964C158.089 149.858 158.024 149.757 157.947 149.665" fill="url(#paint18_linear)"/>
<path d="M133.045 109.189C132.072 107.625 130.787 106.254 129.26 105.152C125.879 102.958 121.388 103.331 117.309 103.792C110.988 104.523 103.628 105.891 100.867 111.303C99.7197 113.556 99.6111 116.13 99.5801 118.617C99.3241 134.985 101.131 151.412 99.5413 167.715C99.0217 172.901 98.153 178.159 99.0915 183.301C100.03 188.443 103.202 193.585 108.398 195.391C111.585 196.495 115.114 196.225 118.48 195.859C122.554 195.411 126.605 194.847 130.633 194.17C132.261 193.899 133.999 193.548 135.139 192.414C136.279 191.281 136.566 189.569 136.69 187.989C137.411 180.317 135.193 173.164 135.247 165.609C135.286 160.116 138.474 155.201 139.901 149.957C143.546 136.258 141.242 121.096 133.045 109.189Z" fill="#00BFBF"/>
<path opacity="0.58" d="M139.893 149.972C138.497 155.216 135.309 160.138 135.239 165.623C135.193 173.186 137.403 180.332 136.682 188.004C136.535 189.584 136.263 191.281 135.131 192.429C133.999 193.577 132.254 193.892 130.625 194.192C126.592 194.864 122.541 195.425 118.472 195.874C115.23 196.225 111.841 196.495 108.755 195.523C108.631 195.523 108.506 195.45 108.375 195.398C103.194 193.606 100.022 188.457 99.0681 183.308C98.1142 178.159 98.9983 172.915 99.5101 167.722C101.147 151.42 99.293 135 99.5489 118.632C99.5489 116.137 99.6963 113.556 100.836 111.318C103.163 106.703 108.879 105.028 114.416 104.179C115.378 104.033 116.332 103.916 117.27 103.806C121.349 103.338 125.801 102.965 129.221 105.159C130.754 106.259 132.04 107.633 133.006 109.204C141.242 121.089 143.546 136.251 139.893 149.972Z" fill="url(#paint19_linear)"/>
<path opacity="0.58" d="M127.104 149.972C125.7 155.216 122.521 160.138 122.451 165.623C122.389 173.186 124.615 180.332 123.893 188.004C123.746 189.584 123.475 191.281 122.342 192.429C121.21 193.577 119.465 193.892 117.844 194.192C114.83 194.679 111.803 195.123 108.762 195.523C108.638 195.523 108.514 195.45 108.382 195.398C103.202 193.606 100.03 188.457 99.0759 183.308C98.122 178.159 99.0061 172.915 99.518 167.723C101.154 151.42 99.3008 135 99.5567 118.632C99.5567 116.138 99.7041 113.556 100.844 111.318C103.171 106.703 108.887 105.028 114.424 104.179C115.134 104.432 115.81 104.761 116.44 105.159C117.968 106.261 119.252 107.635 120.217 109.204C128.454 121.089 130.757 136.251 127.104 149.972Z" fill="url(#paint20_linear)"/>
<path opacity="0.58" d="M114.261 151.215C114.054 151.291 113.878 151.427 113.757 151.603C113.676 151.844 113.693 152.104 113.803 152.334C114.801 155.727 114.779 159.315 113.741 162.698C112.701 166.062 111.333 169.328 109.654 172.455L117.836 171.211C119.69 170.933 121.66 170.655 123.412 171.299C125.289 171.979 126.639 173.603 128.508 174.305C123.402 173.334 118.108 173.773 113.261 175.57C112.137 175.877 111.167 176.551 110.523 177.472C110.256 178.021 110.113 178.616 110.104 179.22C109.809 183.74 111.772 188.084 113.695 192.239C114.937 192.265 116.127 192.709 117.053 193.489C114.675 194.367 112.252 195.14 109.786 195.808C108.801 196.079 107.537 196.247 106.932 195.464C106.724 195.143 106.599 194.779 106.568 194.404C105.558 189.393 104.929 184.322 104.683 179.227C104.45 168.695 107.475 158.317 111.469 148.509C111.592 148.091 111.843 147.717 112.19 147.434C112.485 147.27 112.812 147.168 113.152 147.134L123.157 145.51C124.428 145.305 129.431 144.004 128.857 146.242C128.36 148.216 124.095 147.982 122.652 148.26C119.732 148.901 116.912 149.894 114.261 151.215V151.215Z" fill="url(#paint21_linear)"/>
<path opacity="0.58" d="M130.253 112.671C128.073 113.834 125.599 115.596 125.956 117.959C126.09 118.611 126.323 119.241 126.646 119.831C127.925 122.576 128.646 125.524 128.771 128.52C127.651 126.179 126.243 123.969 124.576 121.938C123.303 124.33 122.569 126.944 122.42 129.617C122.35 130.868 122.42 132.184 121.768 133.274C120.791 134.986 118.542 135.607 116.51 135.936C114.478 136.265 112.245 136.558 110.833 137.977C110.794 136.697 109.414 135.783 108.072 135.563C106.73 135.344 105.358 135.636 103.993 135.622C102.628 135.607 101.108 135.198 100.464 134.064C99.8204 132.93 100.301 131.482 100.883 130.283C102.263 127.479 104.095 124.894 106.312 122.618C108.917 119.926 112.027 117.695 114.532 114.931C115.936 113.388 117.146 111.676 118.666 110.235C120.122 108.707 122.096 107.703 124.25 107.397C125.801 107.266 130.005 107.178 131.276 108.026C133.231 109.35 131.874 111.779 130.253 112.671Z" fill="url(#paint22_linear)"/>
<path d="M110.833 148.436C111.12 153.928 112.066 159.575 110.36 164.841C109.53 167.401 108.103 169.763 107.39 172.352C105.939 177.625 107.615 183.162 109.135 188.443C109.825 190.798 110.065 194.031 107.677 194.974C106.985 195.188 106.241 195.201 105.542 195.012C104.842 194.823 104.219 194.44 103.752 193.914C102.835 192.849 102.195 191.597 101.883 190.257C99.7093 183.04 99.4114 175.436 101.015 168.088C102.139 162.968 104.194 157.98 104.947 152.773C105.761 147.141 105.017 141.422 104.226 135.783C103.977 134.035 104.117 131.694 105.924 131.241C106.548 131.141 107.188 131.181 107.793 131.358C112.446 132.389 111.609 133.42 111.151 137.574C110.841 141.187 110.735 144.812 110.833 148.436V148.436Z" fill="#00BFBF"/>
<path opacity="0.58" d="M110.833 148.436C111.12 153.928 112.066 159.575 110.36 164.841C109.53 167.401 108.103 169.763 107.39 172.352C105.939 177.625 107.615 183.162 109.135 188.443C109.825 190.798 110.065 194.031 107.677 194.974C106.985 195.188 106.241 195.201 105.542 195.012C104.842 194.823 104.219 194.44 103.752 193.914C102.835 192.849 102.195 191.597 101.883 190.257C99.7093 183.04 99.4114 175.436 101.015 168.088C102.139 162.968 104.194 157.98 104.947 152.773C105.761 147.141 105.017 141.422 104.226 135.783C103.977 134.035 104.117 131.694 105.924 131.241C106.548 131.141 107.188 131.181 107.793 131.358C112.446 132.389 111.609 133.42 111.151 137.574C110.841 141.187 110.735 144.812 110.833 148.436V148.436Z" fill="url(#paint23_linear)"/>
<path d="M163.911 249.741C163.531 249.774 163.174 249.926 162.895 250.172C162.658 250.545 162.583 250.991 162.686 251.416L163.593 259.461C163.702 260.485 163.927 261.655 164.881 262.16C165.272 262.338 165.696 262.443 166.129 262.467C171.868 263.125 177.628 263.542 183.409 263.718C184.083 263.718 184.882 263.718 185.231 263.147C185.403 262.823 185.442 262.45 185.34 262.101C185.144 261.45 184.814 260.843 184.368 260.313C183.922 259.783 183.369 259.342 182.742 259.015C181.532 258.283 180.167 257.83 178.918 257.179C176.737 256.044 174.924 254.37 173.675 252.337C172.776 250.874 171.946 249.046 170.007 248.841C168.324 248.651 165.625 249.39 163.911 249.741Z" fill="#00BFBF"/>
<path d="M129.462 264.925C128.67 264.929 127.899 265.161 127.251 265.59C126.713 266.126 126.39 266.821 126.336 267.558C126.11 269.087 126.253 270.645 126.755 272.114C126.857 272.474 127.045 272.807 127.306 273.087C127.608 273.301 127.955 273.453 128.324 273.533C128.693 273.612 129.075 273.617 129.446 273.548C133.645 273.257 137.712 272.039 141.32 269.993C142.599 269.262 143.918 268.267 144.096 266.87C144.156 266.551 144.086 266.222 143.902 265.949C143.251 265.107 138.706 264.742 137.442 264.486C134.875 264.018 132.037 264.661 129.462 264.925Z" fill="#00BFBF"/>
<path opacity="0.58" d="M163.911 249.741C163.531 249.774 163.174 249.926 162.895 250.172C162.658 250.545 162.583 250.991 162.686 251.416L163.593 259.461C163.702 260.485 163.927 261.655 164.881 262.16C165.272 262.338 165.696 262.443 166.129 262.467C171.868 263.125 177.628 263.542 183.409 263.718C184.083 263.718 184.882 263.718 185.231 263.147C185.403 262.823 185.442 262.45 185.34 262.101C185.144 261.45 184.814 260.843 184.368 260.313C183.922 259.783 183.369 259.342 182.742 259.015C181.532 258.283 180.167 257.83 178.918 257.179C176.737 256.044 174.924 254.37 173.675 252.337C172.776 250.874 171.946 249.046 170.007 248.841C168.324 248.651 165.625 249.39 163.911 249.741Z" fill="url(#paint24_linear)"/>
<path opacity="0.58" d="M129.462 264.925C128.67 264.929 127.899 265.161 127.251 265.59C126.713 266.126 126.39 266.821 126.336 267.558C126.11 269.087 126.253 270.645 126.755 272.114C126.857 272.474 127.045 272.807 127.306 273.087C127.608 273.301 127.955 273.453 128.324 273.533C128.693 273.612 129.075 273.617 129.446 273.548C133.645 273.257 137.712 272.039 141.32 269.993C142.599 269.262 143.918 268.267 144.096 266.87C144.156 266.551 144.086 266.222 143.902 265.949C143.251 265.107 138.706 264.742 137.442 264.486C134.875 264.018 132.037 264.661 129.462 264.925Z" fill="url(#paint25_linear)"/>
<path d="M369.066 176.543C368.989 177.691 368.888 178.84 368.795 179.988C367.138 178.32 364.968 177.184 362.59 176.741C361.917 176.576 361.208 176.591 360.543 176.785C359.69 177.207 359.002 177.876 358.581 178.693C355.287 183.721 352.03 188.765 348.809 193.826C347.413 192.158 347.095 189.942 346.723 187.851C346.35 185.759 345.746 183.535 344.039 182.153C342.333 180.771 339.177 180.873 338.277 182.819C338.161 180.712 334.973 179.959 333.034 181.005C331.096 182.051 330.056 184.077 328.73 185.773C326.984 187.967 324.672 189.702 322.014 190.816C319.357 191.93 316.441 192.384 313.545 192.136C311.994 191.99 310.443 191.654 308.962 192.136C307.17 192.743 306.061 194.455 304.355 195.259C300.826 196.92 296.785 194.002 294.614 190.915C292.65 188.086 290.462 185.402 288.068 182.884L288.185 182.819C290.054 184.281 291.721 186.205 293.831 187.382C299.259 190.41 306.371 188.019 311.521 184.552C316.67 181.085 321.207 176.507 327.233 174.642C333.259 172.777 341.488 175.329 342.294 181.224C349.274 180.383 350.345 169.383 357.27 168.176C362.226 167.32 365.987 172.096 368.733 176.082L369.066 176.543Z" fill="url(#paint26_linear)"/>
<path opacity="0.58" d="M276.016 199.07C266.089 194.221 256.736 187.178 245.576 186.483C241.101 186.205 235.991 186.812 232.71 183.916C231.112 182.497 230.275 180.478 228.832 178.92C227.39 177.362 224.753 176.346 223.047 177.64C222.093 178.372 221.752 179.578 221.496 180.705L218.3 193.277C217.719 195.545 217.114 197.871 215.695 199.779C214.004 202.047 211.352 203.436 208.862 204.965C199.368 210.677 191.32 218.284 185.286 227.251C214.619 227.132 243.898 224.846 272.852 220.412C278.072 219.615 301.307 217.706 302.175 211.811C303.083 205.557 280.111 201.067 276.016 199.07Z" fill="url(#paint27_linear)"/>
<path opacity="0.58" d="M359.628 234.974C357.933 250.592 353.22 265.785 345.722 279.801C341.658 287.4 336.633 295.211 337.269 303.703C344.249 304.602 351.035 300.412 354.943 294.926C358.852 289.441 360.434 282.778 361.923 276.305L368.609 290.86C369.237 292.227 369.927 293.668 371.238 294.517C373.51 295.979 376.798 294.89 378.52 292.878C380.242 290.867 380.769 288.197 381.211 285.645C384.057 269.269 385.329 252.684 385.011 236.093C393.55 244.1 401.157 252.944 407.704 262.474C410.077 265.926 412.357 269.532 413.42 273.526C414.676 278.185 414.242 283.085 414.435 287.897C414.92 299.281 418.914 310.284 425.929 319.559C429.233 323.911 432.909 330.713 428.132 333.668C426.938 334.299 425.617 334.685 424.254 334.802C403.384 337.903 314.902 349.561 318.082 320.013C319.54 306.672 332.577 289.499 336.881 275.895C341.596 260.997 345.761 244.826 359.628 234.974Z" fill="url(#paint28_linear)"/>
<path opacity="0.58" d="M187.511 309.064L195.003 316.553C193.584 320.447 193.079 324.584 193.521 328.68C193.534 329.521 193.833 330.337 194.375 331.006C194.844 331.42 195.402 331.734 196.011 331.927C200.486 333.675 206.427 335.116 209.521 331.605C210.917 330.018 211.63 327.495 213.786 327.144C214.668 327.069 215.554 327.218 216.354 327.575C224.632 330.51 232.312 334.771 239.054 340.17C230.257 340.159 221.488 341.081 212.91 342.92C207.838 344.003 202.828 345.407 197.857 346.811C190.582 348.859 163.066 361.439 170.713 346.08C174.482 338.554 178.546 337.99 179.825 329.024C180.872 321.849 183.183 315.098 187.511 309.064Z" fill="url(#paint29_linear)"/>
<path d="M130.966 108.407C127.864 110.908 124.808 111.449 122.722 115.245C120.994 118.662 120.212 122.437 120.45 126.216C120.496 128.023 120.589 130.115 119.139 131.292C118.422 131.793 117.591 132.129 116.712 132.272C113.043 133.088 109.271 133.418 105.505 133.252C103.455 133.227 101.43 132.827 99.5411 132.075V132.075C98.5726 131.672 97.7017 131.087 96.9819 130.356C94.8801 128.162 94.5777 124.966 94.5389 122.018C94.4924 117.893 94.8491 113.512 97.3774 110.14C99.1534 107.763 101.86 106.125 104.675 104.918C111.478 102.006 119.105 101.274 126.39 102.834V102.834C129.26 103.47 134.293 105.693 130.966 108.407Z" fill="#00BFBF"/>
<path opacity="0.58" d="M128.516 107.646C125.46 110.133 122.358 110.674 120.279 114.485C118.535 117.898 117.734 121.672 117.953 125.455C118.015 127.262 118.092 129.346 116.642 130.531C115.927 131.029 115.098 131.363 114.222 131.504C110.544 132.325 106.761 132.658 102.985 132.491C101.803 132.449 100.628 132.312 99.4715 132.082V132.082C98.5029 131.68 97.632 131.095 96.9122 130.363C94.8104 128.169 94.508 124.973 94.4692 122.025C94.4227 117.9 94.7794 113.519 97.3077 110.147C99.0837 107.77 101.79 106.132 104.606 104.925C111.408 102.013 119.035 101.281 126.321 102.841V102.841C128.834 103.894 130.99 105.62 128.516 107.646Z" fill="url(#paint30_linear)"/>
<path d="M127.872 143.001C126.274 142.857 124.668 142.81 123.064 142.862C120.085 143.06 117.247 144.091 114.463 145.108C113.428 145.425 112.466 145.921 111.624 146.571C111.437 146.71 111.281 146.883 111.167 147.081C111.052 147.278 110.981 147.495 110.957 147.719C110.957 148.831 112.601 149.13 113.765 148.948C118.348 148.216 122.963 145.781 127.383 147.141C129.369 147.755 131.052 149.094 133.06 149.635C134.329 149.924 135.634 150.047 136.938 150.001C137.844 150.067 138.755 149.945 139.606 149.642C140.203 149.341 140.716 148.911 141.102 148.388C141.489 147.864 141.739 147.261 141.832 146.629C143.026 140.463 131.975 143.25 127.872 143.001Z" fill="#00BFBF"/>
<path d="M124.421 167.642C122.823 167.499 121.216 167.456 119.612 167.51C116.634 167.701 113.796 168.732 111.019 169.749C109.984 170.069 109.019 170.564 108.173 171.211C107.986 171.35 107.831 171.524 107.718 171.721C107.605 171.919 107.535 172.136 107.514 172.36C107.514 173.471 109.15 173.771 110.314 173.588C114.905 172.857 119.519 170.429 123.932 171.789C125.925 172.396 127.6 173.735 129.609 174.283C130.879 174.566 132.183 174.687 133.487 174.642C134.395 174.707 135.307 174.587 136.162 174.29C136.758 173.987 137.269 173.555 137.655 173.03C138.04 172.505 138.289 171.902 138.38 171.27C139.583 165.111 128.523 167.898 124.421 167.642Z" fill="#00BFBF"/>
<path d="M100.014 147.083C99.1417 147.074 98.2771 147.241 97.4783 147.573C97.0836 147.746 96.7461 148.018 96.5017 148.358C96.2573 148.698 96.1151 149.094 96.0901 149.504C96.1421 150.045 96.3309 150.567 96.6407 151.025C96.7088 151.175 96.8091 151.309 96.9354 151.42C97.1137 151.511 97.3109 151.564 97.5132 151.575C97.7155 151.587 97.9181 151.556 98.1065 151.486C99.6707 151.143 101.291 151.09 102.876 151.332C103.183 151.413 103.508 151.413 103.815 151.332C104.869 150.937 105.668 148.48 104.908 147.675C104.024 146.688 101.139 147.046 100.014 147.083Z" fill="#00BFBF"/>
<path d="M94.8492 169.58C94.4383 170.159 94.2596 170.856 94.3451 171.548V173.332L99.836 173.266C100.022 173.286 100.209 173.242 100.363 173.142C100.497 173.007 100.572 172.829 100.573 172.645C100.743 171.343 101.271 169.5 99.867 168.739C98.8433 168.183 95.6248 168.754 94.8492 169.58Z" fill="#00BFBF"/>
<path opacity="0.58" d="M127.872 143.001C126.274 142.857 124.668 142.81 123.064 142.862C120.085 143.06 117.247 144.091 114.463 145.108C113.428 145.425 112.466 145.921 111.624 146.571C111.437 146.71 111.281 146.883 111.167 147.081C111.052 147.278 110.981 147.495 110.957 147.719C110.957 148.831 112.601 149.13 113.765 148.948C118.348 148.216 122.963 145.781 127.383 147.141C129.369 147.755 131.052 149.094 133.06 149.635C134.329 149.924 135.634 150.047 136.938 150.001C137.844 150.067 138.755 149.945 139.606 149.642C140.203 149.341 140.716 148.911 141.102 148.388C141.489 147.864 141.739 147.261 141.832 146.629C143.026 140.463 131.975 143.25 127.872 143.001Z" fill="url(#paint31_linear)"/>
<path opacity="0.58" d="M124.421 167.642C122.823 167.499 121.216 167.456 119.612 167.51C116.634 167.701 113.796 168.732 111.019 169.749C109.984 170.069 109.019 170.564 108.173 171.211C107.986 171.35 107.831 171.524 107.718 171.721C107.605 171.919 107.535 172.136 107.514 172.36C107.514 173.471 109.15 173.771 110.314 173.588C114.905 172.857 119.519 170.429 123.932 171.789C125.925 172.396 127.6 173.735 129.609 174.283C130.879 174.566 132.183 174.687 133.487 174.642C134.395 174.707 135.307 174.587 136.162 174.29C136.758 173.987 137.269 173.555 137.655 173.03C138.04 172.505 138.289 171.902 138.38 171.27C139.583 165.111 128.523 167.898 124.421 167.642Z" fill="url(#paint32_linear)"/>
<path opacity="0.58" d="M100.014 147.083C99.1417 147.074 98.2771 147.241 97.4783 147.573C97.0836 147.746 96.7461 148.018 96.5017 148.358C96.2573 148.698 96.1151 149.094 96.0901 149.504C96.1421 150.045 96.3309 150.567 96.6407 151.025C96.7088 151.175 96.8091 151.309 96.9354 151.42C97.1137 151.511 97.3109 151.564 97.5132 151.575C97.7155 151.587 97.9181 151.556 98.1065 151.486C99.6707 151.143 101.291 151.09 102.876 151.332C103.183 151.413 103.508 151.413 103.815 151.332C104.869 150.937 105.668 148.48 104.908 147.675C104.024 146.688 101.139 147.046 100.014 147.083Z" fill="url(#paint33_linear)"/>
<path opacity="0.58" d="M94.8492 169.58C94.4383 170.159 94.2596 170.856 94.3451 171.548V173.332L99.836 173.266C100.022 173.286 100.209 173.242 100.363 173.142C100.497 173.007 100.572 172.829 100.573 172.645C100.743 171.343 101.271 169.5 99.867 168.739C98.8433 168.183 95.6248 168.754 94.8492 169.58Z" fill="url(#paint34_linear)"/>
<path opacity="0.58" d="M132.533 203.034C132.257 202.699 131.853 202.479 131.408 202.42C130.633 202.42 130.276 203.334 130.191 204.065C129.896 206.567 130.26 209.105 130.02 211.613C129.71 214.831 128.415 217.918 128.252 221.121C128.196 221.58 128.259 222.045 128.438 222.474C128.981 223.593 130.578 223.747 131.881 223.667C134.104 223.535 136.31 223.22 138.473 222.723C138.889 222.667 139.28 222.499 139.598 222.24C139.92 221.845 140.09 221.357 140.079 220.858C140.35 218.079 141.932 212.952 140.536 210.487C138.916 207.649 134.697 205.557 132.533 203.034Z" fill="url(#paint35_linear)"/>
</g>
<defs>
<linearGradient id="paint0_linear" x1="210.42" y1="262.979" x2="222.045" y2="11.8694" gradientUnits="userSpaceOnUse">
<stop offset="0.01"/>
<stop offset="0.13" stop-opacity="0.69"/>
<stop offset="1" stop-opacity="0"/>
</linearGradient>
<linearGradient id="paint1_linear" x1="104211" y1="28163.6" x2="104960" y2="12338.8" gradientUnits="userSpaceOnUse">
<stop offset="0.01"/>
<stop offset="0.13" stop-opacity="0.69"/>
<stop offset="1" stop-opacity="0"/>
</linearGradient>
<linearGradient id="paint2_linear" x1="112.228" y1="262.701" x2="118.036" y2="-43.0343" gradientUnits="userSpaceOnUse">
<stop offset="0.02" stop-color="white" stop-opacity="0"/>
<stop offset="0.58" stop-color="white" stop-opacity="0.39"/>
<stop offset="0.68" stop-color="white" stop-opacity="0.68"/>
<stop offset="1" stop-color="white"/>
</linearGradient>
<linearGradient id="paint3_linear" x1="82065.4" y1="33923.2" x2="82423.9" y2="75296.7" gradientUnits="userSpaceOnUse">
<stop offset="0.01"/>
<stop offset="0.13" stop-opacity="0.69"/>
<stop offset="1" stop-opacity="0"/>
</linearGradient>
<linearGradient id="paint4_linear" x1="23285.3" y1="32052.2" x2="25062.6" y2="13070.9" gradientUnits="userSpaceOnUse">
<stop offset="0.01"/>
<stop offset="0.13" stop-opacity="0.69"/>
<stop offset="1" stop-opacity="0"/>
</linearGradient>
<linearGradient id="paint5_linear" x1="76144.2" y1="50570.1" x2="167680" y2="97528.5" gradientUnits="userSpaceOnUse">
<stop offset="0.01"/>
<stop offset="0.13" stop-opacity="0.69"/>
<stop offset="1" stop-opacity="0"/>
</linearGradient>
<linearGradient id="paint6_linear" x1="35728.2" y1="41477.1" x2="67255" y2="64429.8" gradientUnits="userSpaceOnUse">
<stop offset="0.01"/>
<stop offset="0.13" stop-opacity="0.69"/>
<stop offset="1" stop-opacity="0"/>
</linearGradient>
<linearGradient id="paint7_linear" x1="122.598" y1="244.519" x2="135.984" y2="244.519" gradientUnits="userSpaceOnUse">
<stop stop-color="#ECC4D7"/>
<stop offset="0.42" stop-color="#EFD4D1"/>
<stop offset="0.6" stop-color="#F0DCCE"/>
<stop offset="1" stop-color="#F2EAC9"/>
</linearGradient>
<linearGradient id="paint8_linear" x1="3432.01" y1="16353.2" x2="3723.55" y2="16353.2" gradientUnits="userSpaceOnUse">
<stop stop-color="#ECC4D7"/>
<stop offset="0.42" stop-color="#EFD4D1"/>
<stop offset="0.6" stop-color="#F0DCCE"/>
<stop offset="1" stop-color="#F2EAC9"/>
</linearGradient>
<linearGradient id="paint9_linear" x1="10178.8" y1="12705.1" x2="19237.4" y2="-9020.91" gradientUnits="userSpaceOnUse">
<stop offset="0.01"/>
<stop offset="0.13" stop-opacity="0.69"/>
<stop offset="1" stop-opacity="0"/>
</linearGradient>
<linearGradient id="paint10_linear" x1="2022.01" y1="3027.16" x2="2141.59" y2="3027.16" gradientUnits="userSpaceOnUse">
<stop stop-color="#ECC4D7"/>
<stop offset="0.42" stop-color="#EFD4D1"/>
<stop offset="0.6" stop-color="#F0DCCE"/>
<stop offset="1" stop-color="#F2EAC9"/>
</linearGradient>
<linearGradient id="paint11_linear" x1="3447.67" y1="2463.71" x2="4421.47" y2="2594.16" gradientUnits="userSpaceOnUse">
<stop offset="0.01"/>
<stop offset="0.13" stop-opacity="0.69"/>
<stop offset="1" stop-opacity="0"/>
</linearGradient>
<linearGradient id="paint12_linear" x1="31871" y1="44439.1" x2="51748.1" y2="91094.2" gradientUnits="userSpaceOnUse">
<stop offset="0.01"/>
<stop offset="0.13" stop-opacity="0.69"/>
<stop offset="1" stop-opacity="0"/>
</linearGradient>
<linearGradient id="paint13_linear" x1="15558.2" y1="43063.1" x2="48217.3" y2="66624.6" gradientUnits="userSpaceOnUse">
<stop offset="0.01"/>
<stop offset="0.13" stop-opacity="0.69"/>
<stop offset="1" stop-opacity="0"/>
</linearGradient>
<linearGradient id="paint14_linear" x1="7580.04" y1="13649.9" x2="11670.1" y2="13935.7" gradientUnits="userSpaceOnUse">
<stop offset="0.01"/>
<stop offset="0.13" stop-opacity="0.69"/>
<stop offset="1" stop-opacity="0"/>
</linearGradient>
<linearGradient id="paint15_linear" x1="2640.46" y1="13045.4" x2="3829.38" y2="13126.5" gradientUnits="userSpaceOnUse">
<stop offset="0.01"/>
<stop offset="0.13" stop-opacity="0.69"/>
<stop offset="1" stop-opacity="0"/>
</linearGradient>
<linearGradient id="paint16_linear" x1="2633.01" y1="8125.11" x2="3747.06" y2="8478.02" gradientUnits="userSpaceOnUse">
<stop offset="0.01"/>
<stop offset="0.13" stop-opacity="0.69"/>
<stop offset="1" stop-opacity="0"/>
</linearGradient>
<linearGradient id="paint17_linear" x1="2150.86" y1="1100.83" x2="2359.46" y2="1070.78" gradientUnits="userSpaceOnUse">
<stop offset="0.01"/>
<stop offset="0.13" stop-opacity="0.69"/>
<stop offset="1" stop-opacity="0"/>
</linearGradient>
<linearGradient id="paint18_linear" x1="3161.89" y1="11851.6" x2="3426.2" y2="11851.6" gradientUnits="userSpaceOnUse">
<stop stop-color="#ECC4D7"/>
<stop offset="0.42" stop-color="#EFD4D1"/>
<stop offset="0.6" stop-color="#F0DCCE"/>
<stop offset="1" stop-color="#F2EAC9"/>
</linearGradient>
<linearGradient id="paint19_linear" x1="3679.78" y1="20490.1" x2="17795.2" y2="22032.4" gradientUnits="userSpaceOnUse">
<stop offset="0.01"/>
<stop offset="0.13" stop-opacity="0.69"/>
<stop offset="1" stop-opacity="0"/>
</linearGradient>
<linearGradient id="paint20_linear" x1="2957.93" y1="20608.9" x2="10626.5" y2="21206.2" gradientUnits="userSpaceOnUse">
<stop offset="0.01"/>
<stop offset="0.13" stop-opacity="0.69"/>
<stop offset="1" stop-opacity="0"/>
</linearGradient>
<linearGradient id="paint21_linear" x1="3761.76" y1="13836.4" x2="4519" y2="13836.4" gradientUnits="userSpaceOnUse">
<stop offset="0.01"/>
<stop offset="0.13" stop-opacity="0.69"/>
<stop offset="1" stop-opacity="0"/>
</linearGradient>
<linearGradient id="paint22_linear" x1="4777.83" y1="5805.2" x2="7353.68" y2="7847.57" gradientUnits="userSpaceOnUse">
<stop offset="0.01"/>
<stop offset="0.13" stop-opacity="0.69"/>
<stop offset="1" stop-opacity="0"/>
</linearGradient>
<linearGradient id="paint23_linear" x1="1533.06" y1="16570.9" x2="3216.93" y2="16581.1" gradientUnits="userSpaceOnUse">
<stop offset="0.01"/>
<stop offset="0.13" stop-opacity="0.69"/>
<stop offset="1" stop-opacity="0"/>
</linearGradient>
<linearGradient id="paint24_linear" x1="5068.43" y1="6026.11" x2="9863.14" y2="5445.66" gradientUnits="userSpaceOnUse">
<stop offset="0.01"/>
<stop offset="0.13" stop-opacity="0.69"/>
<stop offset="1" stop-opacity="0"/>
</linearGradient>
<linearGradient id="paint25_linear" x1="3413.68" y1="4029.99" x2="4584.35" y2="2030.27" gradientUnits="userSpaceOnUse">
<stop offset="0.01"/>
<stop offset="0.13" stop-opacity="0.69"/>
<stop offset="1" stop-opacity="0"/>
</linearGradient>
<linearGradient id="paint26_linear" x1="35990.3" y1="8918.54" x2="35963.7" y2="6527.63" gradientUnits="userSpaceOnUse">
<stop offset="0.02" stop-color="white" stop-opacity="0"/>
<stop offset="0.58" stop-color="white" stop-opacity="0.39"/>
<stop offset="0.68" stop-color="white" stop-opacity="0.68"/>
<stop offset="1" stop-color="white"/>
</linearGradient>
<linearGradient id="paint27_linear" x1="32145.5" y1="13711.3" x2="35675.3" y2="23028.3" gradientUnits="userSpaceOnUse">
<stop offset="0.01"/>
<stop offset="0.13" stop-opacity="0.69"/>
<stop offset="1" stop-opacity="0"/>
</linearGradient>
<linearGradient id="paint28_linear" x1="64771.6" y1="66600.5" x2="44189" y2="17437.8" gradientUnits="userSpaceOnUse">
<stop offset="0.01"/>
<stop offset="0.13" stop-opacity="0.69"/>
<stop offset="1" stop-opacity="0"/>
</linearGradient>
<linearGradient id="paint29_linear" x1="18069.1" y1="18136.5" x2="19083.6" y2="25733.8" gradientUnits="userSpaceOnUse">
<stop offset="0.01"/>
<stop offset="0.13" stop-opacity="0.69"/>
<stop offset="1" stop-opacity="0"/>
</linearGradient>
<linearGradient id="paint30_linear" x1="4928.1" y1="5641.71" x2="7491.58" y2="7343.75" gradientUnits="userSpaceOnUse">
<stop offset="0.01"/>
<stop offset="0.13" stop-opacity="0.69"/>
<stop offset="1" stop-opacity="0"/>
</linearGradient>
<linearGradient id="paint31_linear" x1="5422.86" y1="1729.1" x2="5512.2" y2="2822.24" gradientUnits="userSpaceOnUse">
<stop offset="0.01"/>
<stop offset="0.13" stop-opacity="0.69"/>
<stop offset="1" stop-opacity="0"/>
</linearGradient>
<linearGradient id="paint32_linear" x1="4976.81" y1="1788.55" x2="5066" y2="2880.88" gradientUnits="userSpaceOnUse">
<stop offset="0.01"/>
<stop offset="0.13" stop-opacity="0.69"/>
<stop offset="1" stop-opacity="0"/>
</linearGradient>
<linearGradient id="paint33_linear" x1="1379.05" y1="1174.32" x2="1492.07" y2="1834.14" gradientUnits="userSpaceOnUse">
<stop offset="0.01"/>
<stop offset="0.13" stop-opacity="0.69"/>
<stop offset="1" stop-opacity="0"/>
</linearGradient>
<linearGradient id="paint34_linear" x1="922.906" y1="1267.81" x2="1092.13" y2="1937.73" gradientUnits="userSpaceOnUse">
<stop offset="0.01"/>
<stop offset="0.13" stop-opacity="0.69"/>
<stop offset="1" stop-opacity="0"/>
</linearGradient>
<linearGradient id="paint35_linear" x1="2857.47" y1="7123.32" x2="1254.3" y2="7152.55" gradientUnits="userSpaceOnUse">
<stop offset="0.01"/>
<stop offset="0.13" stop-opacity="0.69"/>
<stop offset="1" stop-opacity="0"/>
</linearGradient>
<clipPath id="clip0">
<rect width="446" height="361" fill="white"/>
</clipPath>
</defs>
</svg>
